<?xml version="1.0" encoding="UTF-8"?>
<svg viewBox="0 0 1920 1080" version="1.1" xmlns="http://www.w3.org/2000/svg" xmlns:xlink="http://www.w3.org/1999/xlink">
    <g id="Artboard-Copy-9" stroke="none" stroke-width="1" fill="none" fill-rule="evenodd">
        <g id="LPGD.Logo" transform="translate(240.000000, 116.000000)" fill="#1D1D1D" fill-rule="nonzero">
            <g id="Group" transform="translate(174.000000, 137.000000)">
                <polygon id="L" points="171.014029 568.652049 0.261377553 568.652049 69.2306527 7.90828228 120.539975 7.90828228 57.4772382 520.710962 176.920568 520.710962"></polygon>
                <path id="P" d="M353.520096,7.90828228 C434.242785,7.90828228 477.139765,30.6266335 477.139765,117.206807 C477.139765,155.845892 471.233227,198.77821 455.303472,234.91291 C425.890105,299.669156 364.438242,300.503951 302.210773,300.503951 L269.396672,568.652049 L218.08735,568.652049 L287.056625,7.90828228 L353.520096,7.90828228 Z M342.601949,252.562863 C359.426634,252.562863 377.086587,249.223683 390.570199,239.086886 C417.477763,218.932548 425.054837,155.845892 425.054837,123.944796 C425.054837,75.1689128 407.394884,55.84937 357.756098,55.84937 L332.519071,55.84937 L308.117312,252.562863 L342.601949,252.562863 Z"></path>
                <path id="G" d="M726.168965,126.449181 C724.498429,91.9840704 717.756622,50.7809714 674.024374,50.7809714 C614.30271,50.7809714 591.571487,129.788361 581.488608,176.894654 C563.828655,255.067248 554.581045,338.308241 554.581045,418.150426 C554.581045,460.18832 557.086849,525.77936 614.30271,525.77936 C642.880809,525.77936 662.27096,509.798998 674.024374,484.576261 C691.684327,447.606766 697.590866,363.530978 702.602474,320.658289 L627.72666,320.658289 L633.633199,272.717201 L759.818334,272.717201 L746.334722,385.354906 C742.99365,413.082027 739.592915,439.974354 732.015841,466.926309 C715.191156,529.118541 672.294176,576.224833 604.160169,576.224833 C520.036745,576.224833 502.376793,503.955432 502.376793,434.130788 C502.376793,337.473446 510.789135,236.5825 536.86143,142.429543 C556.191919,71.8297326 598.253631,0.335498531 680.706519,0.335498531 C748.840526,0.335498531 771.571749,45.7125728 779.148823,106.235215 L726.168965,126.449181 Z"></path>
                <path id="D" d="M933.07679,7.90828228 C1035.69544,7.90828228 1073.52114,50.7809714 1073.52114,151.671917 C1073.52114,244.155284 1064.27353,340.812626 1039.03651,429.956813 C1013.79948,520.77059 966.72616,568.652049 868.283855,568.652049 L800.149848,568.652049 L869.119123,7.90828228 L933.07679,7.90828228 Z M881.767468,520.77059 C907.004495,520.77059 929.735718,514.867396 948.230939,497.217444 C969.231964,477.897901 981.880309,451.005574 989.457383,424.053619 C1013.02387,339.977831 1019.70602,247.494464 1019.70602,160.079496 C1019.70602,99.5568542 1006.22241,55.84937 936.417863,55.84937 L914.521908,55.84937 L857.306047,520.710962 L881.767468,520.710962 L881.767468,520.77059 Z"></path>
            </g>
            <path id="border" d="M1345.20507,848 L0,848 L94.8545861,0 L1440,0 L1345.20507,848 Z M41.043997,811.296502 L1312.39374,811.296502 L1399.01566,36.7034978 L127.665921,36.7034978 L41.043997,811.296502 Z"></path>
        </g>
    </g>
</svg>
