<svg width="1920" height="1080" xmlns="http://www.w3.org/2000/svg">
  <g fill="none" fill-rule="evenodd">
    <path id="background" fill="#E62336" d="M0 0h1920v1080H0z"/>
    <text id="text" font-family="OpenSans-Regular, Open Sans" font-size="170" fill="#FFF">
      <tspan x="118" y="250">We want to build a </tspan> <tspan x="118" y="482">Britain that works </tspan> <tspan x="118" y="714" font-family="OpenSans-Extrabold, Open Sans" font-weight="600">for the many, not </tspan> <tspan x="118" y="946" font-family="OpenSans-Extrabold, Open Sans" font-weight="600">the few.</tspan>
    </text>
    <g id="logo" fill="#FFF" fill-rule="nonzero">
      <path d="M1707.974 982.93h-21.94l8.862-71.916h6.592l-8.103 65.767h15.348zm23.45-71.916c10.373 0 15.884 2.914 15.884 14.018 0 4.955-.758 10.461-2.805 15.095-3.78 8.305-11.676 8.413-19.671 8.413l-4.217 34.39h-6.593l8.862-71.916h8.54zm-1.403 31.377c2.162 0 4.431-.428 6.164-1.728 3.457-2.585 4.431-10.676 4.431-14.767 0-6.256-2.27-8.733-8.647-8.733h-3.243l-3.136 25.228h4.431zm49.286-16.174c-.215-4.42-1.081-9.704-6.7-9.704-7.674 0-10.595 10.132-11.89 16.174a142.206 142.206 0 0 0-3.458 30.94c0 5.392.322 13.804 7.674 13.804 3.672 0 6.163-2.05 7.673-5.284 2.27-4.742 3.029-15.524 3.673-21.023h-9.621l.759-6.148h16.213l-1.732 14.446c-.43 3.556-.867 7.005-1.84 10.461-2.162 7.976-7.674 14.018-16.428 14.018-10.81 0-13.079-9.269-13.079-18.224 0-12.396 1.081-25.335 4.431-37.41 2.484-9.055 7.889-18.224 18.483-18.224 8.755 0 11.676 5.82 12.65 13.582l-6.808 2.592zm26.586-15.203c13.185 0 18.045 5.499 18.045 18.438 0 11.86-1.188 24.257-4.43 35.69-3.243 11.647-9.292 17.787-21.94 17.787h-8.755l8.862-71.915h8.218zm-6.593 65.775c3.242 0 6.163-.757 8.54-3.021 2.698-2.478 4.323-5.927 5.297-9.383 3.028-10.783 3.887-22.644 3.887-33.855 0-7.762-1.733-13.367-10.702-13.367h-2.814l-7.351 59.618h3.143v.008z"/>
      <path d="M1835.821 1001H1663l12.186-109H1848l-12.179 109zm-167.548-4.718h163.333l11.129-99.564h-163.333l-11.129 99.564z"/>
    </g>
  </g>
</svg>
